<svg xmlns="http://www.w3.org/2000/svg" viewBox="0 0 160.84 21.19"><defs><style>.cls-1{fill:#50C700;fill-rule:evenodd;}</style></defs><title>Ресурс 4</title><g id="Слой_2" data-name="Слой 2"><g id="Слой_1-2" data-name="Слой 1"><g id="_300" data-name="300"><g id="logo"><path class="cls-1" d="M47.5,16.76H39.89c-1.61,0-3.79-.77-3.79-3h7.61C45.33,13.78,47.51,14.54,47.5,16.76Zm90.63-3.37h-2.68a.37.37,0,0,0-.37.37v2.6a.37.37,0,0,0,.37.37h2.68a.37.37,0,0,0,.37-.37v-2.6A.37.37,0,0,0,138.13,13.4ZM43.71,4.33H36.1c0,2.22,2.17,3,3.79,3H47.5C47.51,5.1,45.33,4.33,43.71,4.33Zm0,4.72H36.1c0,2.22,2.17,3,3.79,3H47.5C47.51,9.82,45.33,9.06,43.71,9.05ZM11.49,10.41c0,4.18-2,6.11-4.1,6.43a6,6,0,0,1-1.19.1,5.31,5.31,0,0,1-2.78-.78v4.64c0,.3-.18.38-.34.38H2.95a2.86,2.86,0,0,1-2.95-3V7.48H0V5.3a1.09,1.09,0,0,1,1.05-1H3.11c.36,0,.3.28.3.44v.39a7.09,7.09,0,0,1,3.24-1,3.2,3.2,0,0,1,.62,0C10,4.39,11.49,6.94,11.49,10.41Zm-3.74.07c0-2.79-.86-3.91-2.23-3.91S3.42,7.65,3.42,9.11v2.64c0,1.71.79,2.74,2.09,2.74C7.29,14.49,7.74,12.55,7.74,10.48ZM117.8,6a6.47,6.47,0,0,1,1.83,4.66,6.7,6.7,0,0,1-1.92,4.83,6.31,6.31,0,0,1-8.31,0,6.74,6.74,0,0,1-1.91-4.83A6.47,6.47,0,0,1,109.31,6a6.21,6.21,0,0,1,8.5,0Zm-1.92,4.66a5.54,5.54,0,0,0-.63-3,2,2,0,0,0-3.41,0,5.54,5.54,0,0,0-.63,3,5.77,5.77,0,0,0,.55,3,2,2,0,0,0,3.55,0A5.76,5.76,0,0,0,115.88,10.63ZM23.81,6.36a6.74,6.74,0,0,1,1.41,4.28c0,.05,0,.09,0,.09,0,.44-.12.62-.45.67h-8a4,4,0,0,0,.41,1.95,2.32,2.32,0,0,0,2.18,1.3,2.47,2.47,0,0,0,1.8-.7,2,2,0,0,0,.41-.61.55.55,0,0,1,.39-.29h2.88c.27,0,.22.22.19.32a5.06,5.06,0,0,1-1.92,2.57A6.75,6.75,0,0,1,19.17,17a6.15,6.15,0,0,1-4.42-1.71A6.37,6.37,0,0,1,13,10.7a6.24,6.24,0,0,1,2.16-5,6,6,0,0,1,4-1.37A5.77,5.77,0,0,1,23.81,6.36Zm-2.26,3a2.92,2.92,0,0,0-.48-1.73,2.14,2.14,0,0,0-1.82-.91,2.52,2.52,0,0,0-1.83.77,2.79,2.79,0,0,0-.67,1.87ZM82,6.36a6.74,6.74,0,0,1,1.41,4.28c0,.05,0,.09,0,.09,0,.44-.12.62-.45.67H75a4,4,0,0,0,.41,1.95,2.32,2.32,0,0,0,2.18,1.3,2.47,2.47,0,0,0,1.8-.7,2,2,0,0,0,.41-.61.55.55,0,0,1,.39-.29H83c.27,0,.22.22.19.32a5.06,5.06,0,0,1-1.92,2.57A6.75,6.75,0,0,1,77.38,17,6.15,6.15,0,0,1,73,15.34a6.37,6.37,0,0,1-1.75-4.63,6.24,6.24,0,0,1,2.16-5,6,6,0,0,1,4-1.37A5.77,5.77,0,0,1,82,6.36Zm-2.26,3a2.91,2.91,0,0,0-.48-1.73,2.14,2.14,0,0,0-1.82-.91,2.52,2.52,0,0,0-1.83.77A2.79,2.79,0,0,0,75,9.36ZM59.39,12.67c-.77-1.59-1.46-2.54-2.11-2.64,0,0,.87,0,1.46-1.65.2-.56.77-1.88,1.15-2.68a4.89,4.89,0,0,1,.61-.93.25.25,0,0,0,0-.15.27.27,0,0,0-.24-.27H57.8c-.69,0-1,.56-1.24,1.08C56.19,6.29,56,6.82,55.5,8a1.79,1.79,0,0,1-1.75,1.17H53V.44c0-.16.07-.44-.3-.44H50.5a1.1,1.1,0,0,0-1.06,1V14.76a3,3,0,0,0,.14,1,1.56,1.56,0,0,0,1.36,1h1.57c.41,0,.51-.21.51-.52V11.27h.63c1.37,0,2,1.57,2.56,2.67s1.47,2.83,3.14,2.75h2a.26.26,0,0,0,.24-.26.27.27,0,0,0,0-.12C61.07,15.56,60,13.86,59.39,12.67Zm71.72,0c-.77-1.59-1.46-2.54-2.11-2.64,0,0,.87,0,1.46-1.65.2-.56.77-1.88,1.15-2.68a4.87,4.87,0,0,1,.61-.93.25.25,0,0,0,0-.15.27.27,0,0,0-.24-.27h-2.51c-.69,0-1,.56-1.24,1.08-.37.86-.53,1.39-1.06,2.58a1.79,1.79,0,0,1-1.75,1.17h-.73V.44c0-.16.07-.44-.3-.44h-2.23a1.1,1.1,0,0,0-1.06,1V14.76a2.94,2.94,0,0,0,.14,1,1.56,1.56,0,0,0,1.36,1h1.57c.41,0,.51-.21.51-.52V11.27h.63c1.37,0,2,1.57,2.56,2.67s1.47,2.83,3.14,2.75h2a.26.26,0,0,0,.24-.26.27.27,0,0,0,0-.12C132.79,15.56,131.75,13.86,131.11,12.67ZM91.68,9.14l-2-.29c-.65-.09-1.55-.31-1.55-1.12a1.12,1.12,0,0,1,.65-1,2.71,2.71,0,0,1,1.32-.24A2.48,2.48,0,0,1,91.75,7a2.8,2.8,0,0,1,.7.86.25.25,0,0,0,.27.13l2.38-.5a.25.25,0,0,0,.18-.33A4.29,4.29,0,0,0,94,5.39,5.76,5.76,0,0,0,90.2,4.31a6.75,6.75,0,0,0-3.71.88,3.65,3.65,0,0,0-1.65,3A3.38,3.38,0,0,0,86,10.77,6.3,6.3,0,0,0,89.1,12l1.75.29c.72.12,1.7.29,1.7,1.22a1,1,0,0,1-.5.93,4.08,4.08,0,0,1-1.82.38,3.66,3.66,0,0,1-2.13-.62,2.43,2.43,0,0,1-.72-1A.25.25,0,0,0,87.1,13l-2.51.38a.25.25,0,0,0-.19.34,5,5,0,0,0,1.66,2.14A7.14,7.14,0,0,0,90.2,17a7.42,7.42,0,0,0,4.11-1,3.63,3.63,0,0,0,1.6-3,3.34,3.34,0,0,0-1-2.44A5.73,5.73,0,0,0,91.68,9.14Zm68.83-4.82h-3a.33.33,0,0,0-.33.33v6.75a3.21,3.21,0,0,1-.56,2,2,2,0,0,1-1.63.83,1.51,1.51,0,0,1-1.24-.56,3.23,3.23,0,0,1-.42-1.88V4.65a.33.33,0,0,0-.33-.33H152a2.24,2.24,0,0,0-2.24,2.24v5.83a4.5,4.5,0,0,0,1.39,3.73,3.84,3.84,0,0,0,2.59.88,3.9,3.9,0,0,0,3.73-2.46h0a2.22,2.22,0,0,0,2.22,2.22h.82a.33.33,0,0,0,.33-.33V4.65A.33.33,0,0,0,160.51,4.32ZM34.22,5V4.53a.32.32,0,0,0-.29-.31,2,2,0,0,0-.37,0h-.22a3.27,3.27,0,0,0-2.24,1,3.55,3.55,0,0,0-.9,2h0V4.58a.27.27,0,0,0-.27-.27h-1.7A1.2,1.2,0,0,0,27,5.51V15.69a1.2,1.2,0,0,0,1.2,1.2h2.17a.27.27,0,0,0,.27-.27V11.18c0-1.32.17-2.49,1.37-3.24a3.11,3.11,0,0,1,1.66-.41h.21c.43.08.38-.38.38-.38ZM70.39,5V4.53a.32.32,0,0,0-.29-.31,2,2,0,0,0-.37,0h-.22a3.27,3.27,0,0,0-2.24,1,3.55,3.55,0,0,0-.9,2h0V4.58A.27.27,0,0,0,66,4.31h-1.7a1.2,1.2,0,0,0-1.2,1.2V15.69a1.2,1.2,0,0,0,1.2,1.2h2.17a.27.27,0,0,0,.27-.27V11.18c0-1.32.17-2.49,1.37-3.24a3.11,3.11,0,0,1,1.66-.41H70c.43.08.38-.38.38-.38Zm77.36,0V4.53a.32.32,0,0,0-.29-.31,2,2,0,0,0-.37,0h-.22a3.27,3.27,0,0,0-2.24,1,3.55,3.55,0,0,0-.9,2h0V4.71a.27.27,0,0,0-.27-.27h-2.63a.27.27,0,0,0-.27.27v11.9a.27.27,0,0,0,.27.27h3.1a.27.27,0,0,0,.27-.27V11.18c0-1.32.17-2.49,1.37-3.24a3.11,3.11,0,0,1,1.66-.41h.21c.43.08.38-.38.38-.38Zm-40.51-.53h-4V3.93h0V.8h0V.44c0-.16.07-.44-.3-.44h-2.23a1.1,1.1,0,0,0-1.06,1V4.42H95.71c-.24,0-.26.16-.23.27A3,3,0,0,0,97.95,7H99.2a.55.55,0,0,1,.45.36v5.85a7.61,7.61,0,0,0,.2,1.75,2.54,2.54,0,0,0,.62,1A4,4,0,0,0,103.41,17a20.36,20.36,0,0,0,2.45-.19.28.28,0,0,0,.24-.28V14.45a.28.28,0,0,0-.31-.28,9.9,9.9,0,0,1-1,.08,1.5,1.5,0,0,1-1.13-.37,1.89,1.89,0,0,1-.39-1.39V9.92h0V7.56a.55.55,0,0,1,.49-.53H105a3,3,0,0,0,2.47-2.34C107.5,4.58,107.47,4.42,107.23,4.42Z"/></g></g></g></g></svg>
